<svg preserveAspectRatio="none" width="100%" height="100%" overflow="visible" style="display: block;" viewBox="0 0 20 16" fill="none" xmlns="http://www.w3.org/2000/svg">
<g id="stopwatch">
<path id="Primary" d="M7.5 0.5C7.5 0.225 7.725 0 8 0H12C12.275 0 12.5 0.225 12.5 0.5C12.5 0.775 12.275 1 12 1H10.5V2.5C10.5 2.50625 10.5 2.5125 10.5 2.51875C12.1688 2.64687 13.6625 3.40312 14.7406 4.55312L15.6469 3.64687C15.8406 3.45312 16.1594 3.45312 16.3531 3.64687C16.5469 3.84062 16.5469 4.15938 16.3531 4.35313L15.3687 5.3375C16.0812 6.38125 16.5 7.64062 16.5 9C16.5 12.5906 13.5906 15.5 10 15.5C6.40937 15.5 3.5 12.5906 3.5 9C3.5 5.57812 6.14375 2.775 9.5 2.51875C9.5 2.5125 9.5 2.50625 9.5 2.5V1H8C7.725 1 7.5 0.775 7.5 0.5ZM4.5 9C4.5 10.4587 5.07946 11.8576 6.11091 12.8891C7.14236 13.9205 8.54131 14.5 10 14.5C11.4587 14.5 12.8576 13.9205 13.8891 12.8891C14.9205 11.8576 15.5 10.4587 15.5 9C15.5 7.54131 14.9205 6.14236 13.8891 5.11091C12.8576 4.07946 11.4587 3.5 10 3.5C8.54131 3.5 7.14236 4.07946 6.11091 5.11091C5.07946 6.14236 4.5 7.54131 4.5 9ZM10 5.25C10.275 5.25 10.5 5.475 10.5 5.75V9C10.5 9.275 10.275 9.5 10 9.5C9.725 9.5 9.5 9.275 9.5 9V5.75C9.5 5.475 9.725 5.25 10 5.25Z" fill="var(--fill-0, black)"/>
</g>
</svg>
